<mxfile host="app.diagrams.net" modified="2023-09-27T18:35:33.214Z" agent="Mozilla/5.0 (Windows NT 10.0; Win64; x64) AppleWebKit/537.36 (KHTML, like Gecko) Chrome/117.0.0.0 Safari/537.36" etag="mZsGhw9Q1ON0SDbpZ1Ej" version="21.8.1" type="device">
  <diagram name="Side-1" id="EmWByrvAL-KTqJT6Fea_">
    <mxGraphModel dx="2074" dy="1142" grid="1" gridSize="10" guides="1" tooltips="1" connect="1" arrows="1" fold="1" page="1" pageScale="1" pageWidth="827" pageHeight="1169" math="0" shadow="0">
      <root>
        <mxCell id="0" />
        <mxCell id="1" parent="0" />
        <mxCell id="akaA8gGoKV9y_3c0UUX4-24" value="" style="rounded=0;whiteSpace=wrap;html=1;" vertex="1" parent="1">
          <mxGeometry x="820" y="20" width="200" height="160" as="geometry" />
        </mxCell>
        <mxCell id="akaA8gGoKV9y_3c0UUX4-25" value="" style="rounded=0;whiteSpace=wrap;html=1;" vertex="1" parent="1">
          <mxGeometry x="810" y="30" width="200" height="160" as="geometry" />
        </mxCell>
        <mxCell id="akaA8gGoKV9y_3c0UUX4-23" value="" style="rounded=0;whiteSpace=wrap;html=1;" vertex="1" parent="1">
          <mxGeometry x="450" y="20" width="200" height="160" as="geometry" />
        </mxCell>
        <mxCell id="akaA8gGoKV9y_3c0UUX4-22" value="" style="rounded=0;whiteSpace=wrap;html=1;" vertex="1" parent="1">
          <mxGeometry x="440" y="30" width="200" height="160" as="geometry" />
        </mxCell>
        <mxCell id="akaA8gGoKV9y_3c0UUX4-12" style="rounded=0;orthogonalLoop=1;jettySize=auto;html=1;edgeStyle=orthogonalEdgeStyle;entryX=0.5;entryY=1;entryDx=0;entryDy=0;" edge="1" parent="1" source="akaA8gGoKV9y_3c0UUX4-5" target="akaA8gGoKV9y_3c0UUX4-7">
          <mxGeometry relative="1" as="geometry">
            <Array as="points">
              <mxPoint x="710" y="325" />
              <mxPoint x="530" y="325" />
            </Array>
          </mxGeometry>
        </mxCell>
        <mxCell id="akaA8gGoKV9y_3c0UUX4-13" value="&lt;font style=&quot;font-size: 16px;&quot;&gt;Creation, Configuration &amp;amp; Monitoring&lt;/font&gt;" style="edgeLabel;html=1;align=center;verticalAlign=middle;resizable=0;points=[];labelBackgroundColor=default;" vertex="1" connectable="0" parent="akaA8gGoKV9y_3c0UUX4-12">
          <mxGeometry x="-0.4433" relative="1" as="geometry">
            <mxPoint y="20" as="offset" />
          </mxGeometry>
        </mxCell>
        <mxCell id="akaA8gGoKV9y_3c0UUX4-14" style="edgeStyle=orthogonalEdgeStyle;rounded=0;orthogonalLoop=1;jettySize=auto;html=1;entryX=0.5;entryY=1;entryDx=0;entryDy=0;" edge="1" parent="1" source="akaA8gGoKV9y_3c0UUX4-5" target="akaA8gGoKV9y_3c0UUX4-9">
          <mxGeometry relative="1" as="geometry">
            <Array as="points">
              <mxPoint x="710" y="325" />
              <mxPoint x="900" y="325" />
            </Array>
          </mxGeometry>
        </mxCell>
        <mxCell id="akaA8gGoKV9y_3c0UUX4-18" style="rounded=0;orthogonalLoop=1;jettySize=auto;html=1;startArrow=classic;startFill=1;" edge="1" parent="1" source="akaA8gGoKV9y_3c0UUX4-1" target="akaA8gGoKV9y_3c0UUX4-5">
          <mxGeometry relative="1" as="geometry" />
        </mxCell>
        <mxCell id="akaA8gGoKV9y_3c0UUX4-19" value="&lt;font style=&quot;font-size: 16px;&quot;&gt;Environment&lt;br&gt;Information&lt;/font&gt;" style="edgeLabel;html=1;align=center;verticalAlign=middle;resizable=0;points=[];" vertex="1" connectable="0" parent="akaA8gGoKV9y_3c0UUX4-18">
          <mxGeometry x="0.409" y="-1" relative="1" as="geometry">
            <mxPoint x="-62" y="-22" as="offset" />
          </mxGeometry>
        </mxCell>
        <mxCell id="akaA8gGoKV9y_3c0UUX4-26" value="&lt;font style=&quot;font-size: 16px;&quot;&gt;Processing&lt;br&gt;Requests&lt;/font&gt;" style="edgeLabel;html=1;align=center;verticalAlign=middle;resizable=0;points=[];labelBackgroundColor=default;" vertex="1" connectable="0" parent="akaA8gGoKV9y_3c0UUX4-18">
          <mxGeometry x="0.409" y="-1" relative="1" as="geometry">
            <mxPoint x="-212" y="-242" as="offset" />
          </mxGeometry>
        </mxCell>
        <mxCell id="akaA8gGoKV9y_3c0UUX4-32" value="&lt;font style=&quot;font-size: 16px;&quot;&gt;Establishing&lt;br&gt;Test Scenarios&lt;/font&gt;" style="edgeLabel;html=1;align=center;verticalAlign=middle;resizable=0;points=[];" vertex="1" connectable="0" parent="akaA8gGoKV9y_3c0UUX4-18">
          <mxGeometry x="0.409" y="-1" relative="1" as="geometry">
            <mxPoint x="-122" y="132" as="offset" />
          </mxGeometry>
        </mxCell>
        <mxCell id="akaA8gGoKV9y_3c0UUX4-20" style="rounded=0;orthogonalLoop=1;jettySize=auto;html=1;entryX=0;entryY=1;entryDx=0;entryDy=0;exitX=1;exitY=0.25;exitDx=0;exitDy=0;" edge="1" parent="1" source="akaA8gGoKV9y_3c0UUX4-1" target="akaA8gGoKV9y_3c0UUX4-7">
          <mxGeometry relative="1" as="geometry" />
        </mxCell>
        <mxCell id="akaA8gGoKV9y_3c0UUX4-21" style="rounded=0;orthogonalLoop=1;jettySize=auto;html=1;entryX=0;entryY=1;entryDx=0;entryDy=0;exitX=1;exitY=0.25;exitDx=0;exitDy=0;" edge="1" parent="1" source="akaA8gGoKV9y_3c0UUX4-1" target="akaA8gGoKV9y_3c0UUX4-9">
          <mxGeometry relative="1" as="geometry" />
        </mxCell>
        <mxCell id="akaA8gGoKV9y_3c0UUX4-1" value="" style="rounded=0;whiteSpace=wrap;html=1;" vertex="1" parent="1">
          <mxGeometry x="80" y="280" width="200" height="160" as="geometry" />
        </mxCell>
        <mxCell id="akaA8gGoKV9y_3c0UUX4-2" value="agent" style="rounded=0;whiteSpace=wrap;html=1;" vertex="1" parent="1">
          <mxGeometry x="100" y="380" width="70" height="40" as="geometry" />
        </mxCell>
        <mxCell id="akaA8gGoKV9y_3c0UUX4-3" value="&lt;font style=&quot;font-size: 32px;&quot;&gt;MU&lt;/font&gt;" style="text;html=1;strokeColor=none;fillColor=none;align=center;verticalAlign=middle;whiteSpace=wrap;rounded=0;" vertex="1" parent="1">
          <mxGeometry x="80" y="290" width="90" height="50" as="geometry" />
        </mxCell>
        <mxCell id="akaA8gGoKV9y_3c0UUX4-4" value="process" style="rounded=0;whiteSpace=wrap;html=1;" vertex="1" parent="1">
          <mxGeometry x="190" y="380" width="70" height="40" as="geometry" />
        </mxCell>
        <mxCell id="akaA8gGoKV9y_3c0UUX4-5" value="" style="rounded=0;whiteSpace=wrap;html=1;" vertex="1" parent="1">
          <mxGeometry x="610" y="450" width="200" height="160" as="geometry" />
        </mxCell>
        <mxCell id="akaA8gGoKV9y_3c0UUX4-6" value="&lt;font style=&quot;font-size: 32px;&quot;&gt;Provider&lt;/font&gt;" style="text;html=1;strokeColor=none;fillColor=none;align=center;verticalAlign=middle;whiteSpace=wrap;rounded=0;" vertex="1" parent="1">
          <mxGeometry x="610" y="460" width="150" height="50" as="geometry" />
        </mxCell>
        <mxCell id="akaA8gGoKV9y_3c0UUX4-7" value="" style="rounded=0;whiteSpace=wrap;html=1;" vertex="1" parent="1">
          <mxGeometry x="430" y="40" width="200" height="160" as="geometry" />
        </mxCell>
        <mxCell id="akaA8gGoKV9y_3c0UUX4-8" value="&lt;font style=&quot;font-size: 23px;&quot;&gt;Cloud Servers&lt;/font&gt;" style="text;html=1;strokeColor=none;fillColor=none;align=center;verticalAlign=middle;whiteSpace=wrap;rounded=0;" vertex="1" parent="1">
          <mxGeometry x="440" y="50" width="160" height="50" as="geometry" />
        </mxCell>
        <mxCell id="akaA8gGoKV9y_3c0UUX4-9" value="" style="rounded=0;whiteSpace=wrap;html=1;" vertex="1" parent="1">
          <mxGeometry x="800" y="40" width="200" height="160" as="geometry" />
        </mxCell>
        <mxCell id="akaA8gGoKV9y_3c0UUX4-11" value="&lt;font style=&quot;font-size: 23px;&quot;&gt;Edge Servers&lt;/font&gt;" style="text;html=1;strokeColor=none;fillColor=none;align=center;verticalAlign=middle;whiteSpace=wrap;rounded=0;" vertex="1" parent="1">
          <mxGeometry x="810" y="50" width="160" height="50" as="geometry" />
        </mxCell>
        <mxCell id="akaA8gGoKV9y_3c0UUX4-31" style="rounded=0;orthogonalLoop=1;jettySize=auto;html=1;entryX=0;entryY=0.75;entryDx=0;entryDy=0;" edge="1" parent="1" source="akaA8gGoKV9y_3c0UUX4-15" target="akaA8gGoKV9y_3c0UUX4-5">
          <mxGeometry relative="1" as="geometry" />
        </mxCell>
        <mxCell id="akaA8gGoKV9y_3c0UUX4-15" value="" style="shape=actor;whiteSpace=wrap;html=1;" vertex="1" parent="1">
          <mxGeometry x="145" y="540" width="70" height="70" as="geometry" />
        </mxCell>
        <mxCell id="akaA8gGoKV9y_3c0UUX4-16" value="process" style="rounded=0;whiteSpace=wrap;html=1;" vertex="1" parent="1">
          <mxGeometry x="540" y="140" width="70" height="40" as="geometry" />
        </mxCell>
        <mxCell id="akaA8gGoKV9y_3c0UUX4-17" value="process" style="rounded=0;whiteSpace=wrap;html=1;" vertex="1" parent="1">
          <mxGeometry x="910" y="140" width="70" height="40" as="geometry" />
        </mxCell>
      </root>
    </mxGraphModel>
  </diagram>
</mxfile>
